<svg id="Layer_1" data-name="Layer 1" xmlns="http://www.w3.org/2000/svg" viewBox="0 0 1920 1080"><defs><style>.cls-1{fill:#f60;}.cls-2{fill:#333;}</style></defs><title>Artboard 1 copy 2</title><path class="cls-1" d="M404.25,581.07H253a38.11,38.11,0,0,1-9.45-75l3.89-1-.12-5.3a43.64,43.64,0,0,1,43.57-43.57,42.55,42.55,0,0,1,12.77,1.91l2.84.86,2.16-2.1A59.71,59.71,0,0,1,410,500.11l-.13,4.87,3.89,1a38.14,38.14,0,0,1-9.5,75.1Z"/><path class="cls-1" d="M515.55,771.8q-65.38,67.34-189.06,67.33T137.43,771.8q-87.69-82.59-87.69-238,0-158.52,87.69-238,65.35-67.32,189.06-67.33t189.06,67.33q87.29,79.47,87.29,238Q602.84,689.21,515.55,771.8ZM440.2,684.12q42.07-52.85,42.08-150.31,0-97.06-42.08-150.11t-113.71-53q-71.64,0-114.3,52.84T169.52,533.81q0,97.47,42.67,150.31T326.49,737Q398.12,737,440.2,684.12Z"/><path class="cls-1" d="M1505.56,646.15q5.6,39.54,22,59.1,30,35.63,102.71,35.63,43.56,0,70.75-9.4,51.55-18,51.55-66.94,0-28.56-25.25-44.23-25.26-15.25-80.11-27l-62.46-13.7q-92.1-20.34-126.53-44.23-58.34-39.93-58.33-124.86,0-77.5,57.06-128.79t167.62-51.27q92.31,0,157.51,48.34t68.35,140.33H1734.55q-3.21-52.06-46.55-74-28.9-14.47-71.83-14.48-47.76,0-76.25,18.78t-28.49,52.46q0,30.92,28.09,46.19,18.06,10.17,76.65,23.87l101.26,23.88q66.57,15.66,99.79,41.88,51.58,40.72,51.59,117.82,0,79.08-61.13,131.33T1635,839.13q-113.94,0-179.22-51.48t-65.28-141.5Z"/><polygon class="cls-1" points="819.96 491.47 707.84 542.83 707.84 839.13 819.96 839.13 819.96 491.47"/><polygon class="cls-1" points="1334.97 256.71 1222.86 305.62 1222.86 839.13 1334.97 839.13 1334.97 256.71"/><polygon class="cls-1" points="1077.46 374.09 965.35 425.45 965.35 839.13 1077.46 839.13 1077.46 374.09"/><polygon class="cls-1" points="707.19 503.22 996.53 236.66 1003.1 305.13 1254.99 129.06 1254.99 185.3 1427.39 81.37 1393.16 25.12 1509.32 60.58 1477.53 175.52 1446.96 120.5 1218.86 256.22 1218.3 209.76 966.42 378.5 961.52 339.37 819.69 449.42 707.19 503.22"/><path class="cls-2" d="M124.18,997.66q-10.35,10.67-29.93,10.66T64.31,997.66Q50.42,984.58,50.43,960q0-25.11,13.88-37.69,10.35-10.65,29.94-10.66t29.93,10.66Q138,934.88,138,960,138,984.58,124.18,997.66Zm-11.93-13.88q6.66-8.37,6.66-23.8t-6.66-23.77q-6.66-8.4-18-8.4t-18.1,8.37q-6.77,8.37-6.76,23.8t6.76,23.8q6.75,8.37,18.1,8.37T112.25,983.78Z"/><path class="cls-2" d="M147,939.71h10.85v8.8a27.15,27.15,0,0,1,7.31-7,23.53,23.53,0,0,1,13.26-3.72,24.93,24.93,0,0,1,19.16,8.65q7.86,8.64,7.87,24.69,0,21.71-11.34,31a25.64,25.64,0,0,1-16.74,5.89,22.71,22.71,0,0,1-12.58-3.28,29.08,29.08,0,0,1-6.63-6.39v33.91H147Zm41.87,52q5.18-6.54,5.17-19.55a36.5,36.5,0,0,0-2.29-13.64q-4.33-11-15.87-11t-15.86,11.59q-2.3,6.2-2.3,15.74a33.32,33.32,0,0,0,2.3,13.08q4.33,10.29,15.86,10.29A15.92,15.92,0,0,0,188.91,991.74Z"/><path class="cls-2" d="M256.67,941.23a25.24,25.24,0,0,1,10.1,8.58,29.59,29.59,0,0,1,4.47,11.72q1,4.59,1,14.62H223.57q.31,10.11,4.78,16.21t13.82,6.11q8.73,0,13.94-5.77a19.39,19.39,0,0,0,4.22-7.74h11a23.24,23.24,0,0,1-2.88,8.15,29.12,29.12,0,0,1-5.49,7.34,25.9,25.9,0,0,1-12.58,6.69,37.75,37.75,0,0,1-9.11,1,28,28,0,0,1-21-9q-8.62-9-8.62-25.26,0-16,8.68-26t22.68-10A30.3,30.3,0,0,1,256.67,941.23Zm4.09,26.06a28.89,28.89,0,0,0-3.16-11.59q-4.59-8.06-15.31-8.06a17,17,0,0,0-12.89,5.55,21,21,0,0,0-5.52,14.1Z"/><path class="cls-2" d="M283.06,939.4h10.6v11.47q1.3-3.35,6.38-8.15a16.55,16.55,0,0,1,11.72-4.81c.2,0,.56,0,1.05.07l2.54.24V950a17.28,17.28,0,0,0-1.83-.25c-.55,0-1.16-.06-1.82-.06q-8.43,0-13,5.42a19,19,0,0,0-4.52,12.49v38.18H283.06Z"/><path class="cls-2" d="M357.42,965.56c2.57-.33,4.28-1.41,5.15-3.23a9.71,9.71,0,0,0,.74-4.27q0-5.7-4.06-8.28t-11.62-2.57c-5.82,0-10,1.57-12.39,4.71q-2.06,2.61-2.67,7.75H322.16q.3-12.27,8-17.08a32.73,32.73,0,0,1,17.76-4.8q11.72,0,19,4.46t7.25,13.89v38.24a5,5,0,0,0,.71,2.79c.48.7,1.48,1.05,3,1.05.49,0,1.05,0,1.67-.09s1.28-.16,2-.28v8.24a21.72,21.72,0,0,1-7.68,1.12q-5.76,0-8.37-4.09a15.81,15.81,0,0,1-1.92-6.14,28.47,28.47,0,0,1-9.79,7.75A30.31,30.31,0,0,1,339.7,1008q-9.24,0-15.09-5.61a18.62,18.62,0,0,1-5.86-14q0-9.23,5.76-14.31t15.13-6.26Zm-23.49,30.18a13.12,13.12,0,0,0,8.37,2.79,25.44,25.44,0,0,0,11.41-2.73Q363,991.29,363,981v-9a19,19,0,0,1-5.27,2.17,44.6,44.6,0,0,1-6.32,1.24l-6.75.87c-4.05.54-7.09,1.38-9.11,2.54q-5.15,2.91-5.15,9.3A9.2,9.2,0,0,0,333.93,995.74Z"/><path class="cls-2" d="M391.5,920.87h11.28V939.4h10.6v9.11h-10.6v43.33q0,3.46,2.36,4.64a9.87,9.87,0,0,0,4.34.69c.53,0,1.11,0,1.73,0s1.34-.07,2.17-.15v8.8a25.52,25.52,0,0,1-4,.81,39.15,39.15,0,0,1-4.49.24q-7.81,0-10.6-4t-2.79-10.38v-44h-9V939.4h9Z"/><path class="cls-2" d="M421.36,914.73h11.35v12.65H421.36Zm0,25h11.35v66.07H421.36Z"/><path class="cls-2" d="M494.86,946q8.86,8.55,8.86,25.17,0,16-7.81,26.52t-24.23,10.48q-13.69,0-21.76-9.27t-8.05-24.88q0-16.74,8.49-26.65t22.81-9.92A30.06,30.06,0,0,1,494.86,946ZM488,990.19a41.78,41.78,0,0,0,4.12-18.68q0-9.3-3-15.13-4.71-9.17-16.24-9.17-10.23,0-14.88,7.81t-4.65,18.84q0,10.6,4.65,17.67t14.75,7.06Q483.83,998.59,488,990.19Z"/><path class="cls-2" d="M513.81,939.4h10.6v9.42a29.88,29.88,0,0,1,10-8.37,26.66,26.66,0,0,1,11.71-2.54q14.13,0,19.09,9.86,2.73,5.38,2.73,15.43v42.58H556.58V963.94a22.64,22.64,0,0,0-1.8-9.79q-3-6.2-10.78-6.2a21.82,21.82,0,0,0-6.51.81,16.78,16.78,0,0,0-8.06,5.45,16.35,16.35,0,0,0-3.62,6.79,45.54,45.54,0,0,0-.84,10v34.77H513.81Z"/><path class="cls-2" d="M587.87,985c.33,3.71,1.26,6.57,2.78,8.55q4.22,5.38,14.63,5.39a21.66,21.66,0,0,0,10.91-2.69,9,9,0,0,0,4.71-8.34,7.14,7.14,0,0,0-3.78-6.51q-2.42-1.36-9.54-3.16L598.71,976q-8.49-2.12-12.52-4.71Q579,966.73,579,958.74a19.13,19.13,0,0,1,6.79-15.25q6.78-5.82,18.25-5.82,15,0,21.63,8.8a19.09,19.09,0,0,1,4,12H619.17a13,13,0,0,0-2.67-6.88q-3.84-4.4-13.33-4.4-6.31,0-9.57,2.42a7.57,7.57,0,0,0-3.25,6.38c0,2.89,1.42,5.21,4.27,6.94a25.56,25.56,0,0,0,7.32,2.73l7.37,1.8q12,2.91,16.12,5.64,6.5,4.27,6.5,13.45a20.51,20.51,0,0,1-6.72,15.31q-6.72,6.43-20.49,6.44-14.81,0-21-6.72a25.45,25.45,0,0,1-6.6-16.64Z"/><path class="cls-2" d="M735.71,914.42h27.47v91.36H745.39V944c0-1.78,0-4.27.07-7.47s.06-5.67.06-7.41l-17.31,76.67H709.65l-17.19-76.67q0,2.61.07,7.41t.06,7.47v61.79H674.8V914.42h27.78l16.63,71.84Z"/><path class="cls-2" d="M811.76,965.56q3.84-.49,5.15-3.23a9.86,9.86,0,0,0,.74-4.27q0-5.7-4.06-8.28T802,947.21q-8.75,0-12.4,4.71-2,2.61-2.66,7.75H776.5q.3-12.27,8-17.08a32.71,32.71,0,0,1,17.76-4.8q11.71,0,19,4.46t7.25,13.89v38.24a4.89,4.89,0,0,0,.71,2.79c.48.7,1.48,1.05,3,1.05.49,0,1,0,1.67-.09s1.28-.16,2-.28v8.24a21.72,21.72,0,0,1-7.68,1.12c-3.85,0-6.63-1.37-8.37-4.09A15.81,15.81,0,0,1,817.9,997a28.47,28.47,0,0,1-9.79,7.75A30.31,30.31,0,0,1,794,1008q-9.24,0-15.1-5.61a18.65,18.65,0,0,1-5.85-14q0-9.23,5.76-14.31T794,967.79Zm-23.49,30.18a13.12,13.12,0,0,0,8.37,2.79A25.36,25.36,0,0,0,808,995.8q9.3-4.51,9.3-14.81v-9a19,19,0,0,1-5.27,2.17,44.88,44.88,0,0,1-6.32,1.24l-6.76.87c-4,.54-7.08,1.38-9.11,2.54q-5.14,2.91-5.14,9.3A9.2,9.2,0,0,0,788.27,995.74Z"/><path class="cls-2" d="M843.61,939.4h10.6v9.42a29.85,29.85,0,0,1,10-8.37,26.71,26.71,0,0,1,11.72-2.54q14.13,0,19.09,9.86,2.73,5.38,2.73,15.43v42.58H886.37V963.94a22.8,22.8,0,0,0-1.79-9.79q-3-6.2-10.79-6.2a21.91,21.91,0,0,0-6.51.81,16.81,16.81,0,0,0-8,5.45A16.49,16.49,0,0,0,855.6,961a45.54,45.54,0,0,0-.84,10v34.77H843.61Z"/><path class="cls-2" d="M946.61,965.56q3.84-.49,5.14-3.23a9.71,9.71,0,0,0,.74-4.27q0-5.7-4.06-8.28t-11.62-2.57c-5.82,0-10,1.57-12.39,4.71q-2.05,2.61-2.67,7.75H911.34q.31-12.27,8-17.08a32.76,32.76,0,0,1,17.76-4.8q11.72,0,19,4.46t7.25,13.89v38.24a5,5,0,0,0,.71,2.79c.48.7,1.48,1.05,3,1.05.49,0,1.05,0,1.67-.09s1.28-.16,2-.28v8.24a21.81,21.81,0,0,1-7.69,1.12q-5.76,0-8.37-4.09a15.81,15.81,0,0,1-1.92-6.14,28.47,28.47,0,0,1-9.79,7.75,30.31,30.31,0,0,1-14.07,3.28q-9.24,0-15.09-5.61a18.62,18.62,0,0,1-5.86-14q0-9.23,5.76-14.31t15.13-6.26Zm-23.5,30.18a13.12,13.12,0,0,0,8.37,2.79,25.44,25.44,0,0,0,11.41-2.73q9.29-4.51,9.29-14.81v-9a19,19,0,0,1-5.27,2.17,44.6,44.6,0,0,1-6.32,1.24l-6.75.87c-4.05.54-7.09,1.38-9.11,2.54q-5.15,2.91-5.15,9.3A9.2,9.2,0,0,0,923.11,995.74Z"/><path class="cls-2" d="M1015.51,942.07a30.37,30.37,0,0,1,6.45,6.32V940h10.29v60.37q0,12.65-3.72,20-6.94,13.5-26.22,13.51-10.72,0-18-4.81t-8.18-15h11.34a12.56,12.56,0,0,0,3.22,6.88q3.78,3.72,11.9,3.72,12.83,0,16.8-9,2.35-5.33,2.17-19a22,22,0,0,1-8.06,7.56q-4.71,2.48-12.46,2.48a26.56,26.56,0,0,1-18.87-7.66q-8.08-7.65-8.09-25.32,0-16.67,8.15-26t19.68-9.36A24.1,24.1,0,0,1,1015.51,942.07Zm1.37,12a16.28,16.28,0,0,0-13-5.95q-11.77,0-16.11,11-2.29,5.89-2.29,15.43,0,11.22,4.55,17.08a14.73,14.73,0,0,0,12.24,5.86q12,0,16.92-10.85a34.94,34.94,0,0,0,2.73-14.32Q1022,960,1016.88,954Z"/><path class="cls-2" d="M1087.21,941.23a25.34,25.34,0,0,1,10.11,8.58,29.73,29.73,0,0,1,4.46,11.72q1,4.59,1,14.62h-48.65q.3,10.11,4.77,16.21t13.82,6.11q8.74,0,14-5.77a19.5,19.5,0,0,0,4.21-7.74h11a23.24,23.24,0,0,1-2.88,8.15,28.88,28.88,0,0,1-5.49,7.34,25.9,25.9,0,0,1-12.58,6.69,37.7,37.7,0,0,1-9.11,1,28,28,0,0,1-21-9q-8.61-9-8.62-25.26,0-16,8.68-26t22.69-10A30.26,30.26,0,0,1,1087.21,941.23Zm4.09,26.06q-.67-7.24-3.16-11.59-4.58-8.06-15.31-8.06a17,17,0,0,0-12.89,5.55,20.93,20.93,0,0,0-5.51,14.1Z"/><path class="cls-2" d="M1113.29,939.4h11v9.42a37.14,37.14,0,0,1,7.19-7.13,21.61,21.61,0,0,1,12.52-3.78q7.93,0,12.76,3.91a20.33,20.33,0,0,1,5,6.57,24.07,24.07,0,0,1,8.74-7.9,24.33,24.33,0,0,1,11.28-2.58q13.4,0,18.22,9.67,2.61,5.2,2.61,14v44.19H1191V959.67q0-6.63-3.32-9.11a13.09,13.09,0,0,0-8.09-2.48,16,16,0,0,0-11.31,4.4q-4.74,4.39-4.74,14.69v38.61h-11.34V962.46c0-4.51-.54-7.79-1.61-9.86q-2.55-4.65-9.49-4.65a16.38,16.38,0,0,0-11.49,4.9q-5.18,4.89-5.18,17.73v35.2h-11.16Z"/><path class="cls-2" d="M1257.2,941.23a25.24,25.24,0,0,1,10.1,8.58,29.58,29.58,0,0,1,4.46,11.72q1,4.59,1,14.62H1224.1q.32,10.11,4.77,16.21t13.82,6.11q8.74,0,14-5.77a19.37,19.37,0,0,0,4.21-7.74h11a23.08,23.08,0,0,1-2.89,8.15,29.1,29.1,0,0,1-5.48,7.34,25.9,25.9,0,0,1-12.58,6.69,37.81,37.81,0,0,1-9.11,1,28,28,0,0,1-21-9q-8.61-9-8.61-25.26,0-16,8.68-26t22.68-10A30.3,30.3,0,0,1,1257.2,941.23Zm4.09,26.06a29,29,0,0,0-3.16-11.59q-4.59-8.06-15.31-8.06a17,17,0,0,0-12.89,5.55,21,21,0,0,0-5.52,14.1Z"/><path class="cls-2" d="M1283.28,939.4h10.6v9.42a29.78,29.78,0,0,1,10-8.37,26.63,26.63,0,0,1,11.71-2.54q14.13,0,19.09,9.86,2.73,5.38,2.73,15.43v42.58h-11.34V963.94a22.64,22.64,0,0,0-1.8-9.79q-3-6.2-10.79-6.2a21.8,21.8,0,0,0-6.5.81,16.78,16.78,0,0,0-8.06,5.45,16.49,16.49,0,0,0-3.63,6.79,45.65,45.65,0,0,0-.83,10v34.77h-11.16Z"/><path class="cls-2" d="M1352.93,920.87h11.28V939.4h10.6v9.11h-10.6v43.33q0,3.46,2.36,4.64a9.9,9.9,0,0,0,4.34.69c.53,0,1.11,0,1.73,0s1.35-.07,2.17-.15v8.8a25.52,25.52,0,0,1-4,.81,39.15,39.15,0,0,1-4.49.24q-7.82,0-10.6-4t-2.79-10.38v-44h-9V939.4h9Z"/><path class="cls-2" d="M1430.14,977.58q.88,6.25,3.48,9.36,4.74,5.64,16.26,5.64a35,35,0,0,0,11.2-1.49q8.16-2.85,8.16-10.6a7.81,7.81,0,0,0-4-7q-4-2.41-12.69-4.28l-9.89-2.17q-14.58-3.22-20-7-9.24-6.31-9.24-19.77a26.24,26.24,0,0,1,9-20.39q9-8.13,26.54-8.12,14.61,0,24.94,7.65t10.82,22.22h-18.35q-.51-8.24-7.37-11.71a25.22,25.22,0,0,0-11.37-2.3q-7.56,0-12.07,3a9.4,9.4,0,0,0-4.51,8.3,7.84,7.84,0,0,0,4.44,7.32q2.87,1.6,12.14,3.78l16,3.78q10.54,2.47,15.8,6.63,8.18,6.45,8.17,18.66a26.18,26.18,0,0,1-9.68,20.79q-9.67,8.28-27.34,8.28-18,0-28.38-8.15t-10.34-22.41Z"/><path class="cls-2" d="M1537.84,939.4h12.34q-2.36,6.39-10.48,29.13-6.08,17.12-10.16,27.89-9.68,25.41-13.64,31t-13.63,5.58a25.77,25.77,0,0,1-3.63-.19,27.68,27.68,0,0,1-3.13-.68V1022a38.93,38.93,0,0,0,4.22,1,17,17,0,0,0,2.29.19,8,8,0,0,0,4.55-1,9.44,9.44,0,0,0,2.45-2.51q.32-.5,2.23-5.08t2.79-6.82l-24.54-68.3h12.64l17.79,54.05Z"/><path class="cls-2" d="M1563.3,985c.33,3.71,1.26,6.57,2.79,8.55q4.22,5.38,14.63,5.39a21.66,21.66,0,0,0,10.91-2.69,9,9,0,0,0,4.71-8.34,7.14,7.14,0,0,0-3.78-6.51q-2.41-1.36-9.55-3.16l-8.86-2.23q-8.49-2.12-12.52-4.71-7.19-4.53-7.19-12.52a19.13,19.13,0,0,1,6.79-15.25q6.78-5.82,18.25-5.82,15,0,21.63,8.8a19.09,19.09,0,0,1,4,12H1594.6a12.86,12.86,0,0,0-2.66-6.88q-3.84-4.4-13.33-4.4-6.31,0-9.57,2.42a7.58,7.58,0,0,0-3.26,6.38c0,2.89,1.43,5.21,4.28,6.94a25.6,25.6,0,0,0,7.31,2.73l7.38,1.8q12,2.91,16.11,5.64,6.51,4.27,6.51,13.45a20.51,20.51,0,0,1-6.72,15.31q-6.74,6.43-20.49,6.44-14.81,0-21-6.72a25.45,25.45,0,0,1-6.6-16.64Z"/><path class="cls-2" d="M1619.2,920.87h11.28V939.4h10.6v9.11h-10.6v43.33q0,3.46,2.35,4.64a9.93,9.93,0,0,0,4.34.69c.54,0,1.12,0,1.74,0s1.34-.07,2.17-.15v8.8a25.76,25.76,0,0,1-4,.81,39.15,39.15,0,0,1-4.49.24q-7.81,0-10.6-4t-2.79-10.38v-44h-9V939.4h9Z"/><path class="cls-2" d="M1690.4,941.23a25.24,25.24,0,0,1,10.1,8.58,29.74,29.74,0,0,1,4.47,11.72q1,4.59,1,14.62H1657.3q.32,10.11,4.78,16.21t13.82,6.11q8.73,0,13.94-5.77a19.39,19.39,0,0,0,4.22-7.74h11a23.24,23.24,0,0,1-2.88,8.15,29.12,29.12,0,0,1-5.49,7.34,25.9,25.9,0,0,1-12.58,6.69,37.75,37.75,0,0,1-9.11,1,28,28,0,0,1-21-9q-8.62-9-8.62-25.26,0-16,8.68-26t22.68-10A30.3,30.3,0,0,1,1690.4,941.23Zm4.09,26.06a28.89,28.89,0,0,0-3.16-11.59q-4.59-8.06-15.31-8.06a17,17,0,0,0-12.89,5.55,21,21,0,0,0-5.52,14.1Z"/><path class="cls-2" d="M1716.48,939.4h11v9.42a37.71,37.71,0,0,1,7.19-7.13,21.65,21.65,0,0,1,12.52-3.78q7.93,0,12.77,3.91a20.47,20.47,0,0,1,5,6.57,24,24,0,0,1,8.74-7.9,24.33,24.33,0,0,1,11.28-2.58q13.4,0,18.22,9.67,2.61,5.2,2.61,14v44.19h-11.59V959.67q0-6.63-3.32-9.11a13.09,13.09,0,0,0-8.09-2.48,16,16,0,0,0-11.31,4.4q-4.74,4.39-4.74,14.69v38.61h-11.34V962.46c0-4.51-.54-7.79-1.62-9.86q-2.54-4.65-9.48-4.65a16.4,16.4,0,0,0-11.5,4.9q-5.18,4.89-5.17,17.73v35.2h-11.16Z"/><path class="cls-2" d="M1825.68,985c.33,3.71,1.26,6.57,2.79,8.55q4.21,5.38,14.62,5.39a21.63,21.63,0,0,0,10.91-2.69,9,9,0,0,0,4.71-8.34,7.14,7.14,0,0,0-3.78-6.51q-2.42-1.36-9.54-3.16l-8.87-2.23q-8.49-2.12-12.52-4.71-7.18-4.53-7.19-12.52a19.16,19.16,0,0,1,6.79-15.25q6.8-5.82,18.25-5.82,15,0,21.63,8.8a19,19,0,0,1,4,12H1857a13,13,0,0,0-2.67-6.88q-3.84-4.4-13.32-4.4-6.33,0-9.58,2.42a7.57,7.57,0,0,0-3.25,6.38c0,2.89,1.42,5.21,4.27,6.94a25.68,25.68,0,0,0,7.32,2.73l7.37,1.8q12,2.91,16.12,5.64,6.51,4.27,6.5,13.45a20.51,20.51,0,0,1-6.72,15.31q-6.72,6.43-20.48,6.44-14.82,0-21-6.72A25.41,25.41,0,0,1,1815,985Z"/></svg>